# xmcd
#
# Track frame offsets: 
#        150
#        26565
#        60885
#        81117
#        101972
#        125265
#        150677
#        168727
#        186222
#        219942
#        250442
#
# Disc length: 3833 seconds
#
# Revision: 1
# Processed by: cddbd v1.4PL0 Copyright (c) Steve Scherf et al.
# Submitted via: ExactAudioCopy v0.95a3
#
DISCID=900ef70b
DTITLE=Scott Henderson - Tore Down House
DYEAR=1997
DGENRE=Blues
TTITLE0=Dolemite
TTITLE1=Tore Down House
TTITLE2=Meter Maid
TTITLE3=I Hate You
TTITLE4=Gittar School
TTITLE5=Xanax
TTITLE6=Continuum
TTITLE7=You Got Off On Me
TTITLE8=Mocha
TTITLE9=Harpoon
TTITLE10=Same As You
EXTD=
EXTT0=
EXTT1=
EXTT2=
EXTT3=
EXTT4=
EXTT5=
EXTT6=
EXTT7=
EXTT8=
EXTT9=
EXTT10=
PLAYORDER=
